<?xml version="1.0" encoding="UTF-8"?>
<svg width="16px" height="13px" viewBox="0 0 16 13" version="1.1" xmlns="http://www.w3.org/2000/svg" xmlns:xlink="http://www.w3.org/1999/xlink">
    <!-- Generator: Sketch 61.2 (89653) - https://sketch.com -->
    <title>nav_icon_out_normal</title>
    <desc>Created with Sketch.</desc>
    <defs>
        <polygon id="path-1" points="0 0 18 0 18 18 0 18"></polygon>
        <linearGradient x1="21.7670073%" y1="32.8133205%" x2="64.1034693%" y2="37.4998924%" id="linearGradient-3">
            <stop stop-color="#FFFFFF" stop-opacity="0.510626093" offset="0%"></stop>
            <stop stop-color="#FFFFFF" offset="100%"></stop>
        </linearGradient>
    </defs>
    <g id="图标" stroke="none" stroke-width="1" fill="none" fill-rule="evenodd" opacity="0.652478">
        <g id="ICON切图" transform="translate(-338.000000, -287.000000)">
            <g id="导航栏icon" transform="translate(282.000000, 228.000000)">
                <g id="导航栏icon未选中" transform="translate(55.000000, 0.000000)">
                    <g id="nav_icon_out_normal" transform="translate(0.000000, 57.000000)">
                        <mask id="mask-2" fill="white">
                            <use xlink:href="#path-1"></use>
                        </mask>
                        <g id="矩形备份-3"></g>
                        <g id="编组-2" mask="url(#mask-2)">
                            <g transform="translate(1.524401, 3.009580)">
                                <path d="M9.88722504,6.49171978 C9.9587599,6.36432241 10.040572,6.21862213 10.1326614,6.05461894 C10.4632398,5.46588748 11.2225356,5.2489506 11.828596,5.57007685 C12.0393042,5.68172235 12.2124686,5.84993553 12.3274003,6.05461894 L14.9800309,10.7787236 L7.48003086,10.7787236" id="路径" stroke="url(#linearGradient-3)" stroke-linejoin="round"></path>
                                <path d="M7.61729488,1.34033058 L11.7857143,10.78854 L-2.93098879e-14,10.78854 L4.16841941,1.34033058 C4.68789977,0.162867676 5.88107888,-0.271006088 6.83345954,0.371246406 C7.16457235,0.5945374 7.43668789,0.930963759 7.61729488,1.34033058 Z" id="三角形" stroke="#FFFFFF" stroke-linejoin="round"></path>
                                <circle id="椭圆形" stroke="#ADB9FF" cx="12.0158097" cy="1.875" r="1.875"></circle>
                            </g>
                        </g>
                    </g>
                </g>
            </g>
        </g>
    </g>
</svg>