<?xml version="1.0" encoding="UTF-8"?><svg width="15px" height="14px" viewBox="0 0 15 14" version="1.1" xmlns="http://www.w3.org/2000/svg" xmlns:xlink="http://www.w3.org/1999/xlink"><title>nav_icon_bed_active备份</title><desc>Created with Sketch.</desc><defs><rect id="path-1" x="0" y="0" width="18" height="18"></rect><linearGradient x1="50%" y1="0%" x2="50%" y2="132.708213%" id="linearGradient-3"><stop stop-color="#FFFFFF" offset="0%"></stop><stop stop-color="#FFFFFF" stop-opacity="0.403545673" offset="100%"></stop></linearGradient></defs><g id="图标" stroke="none" stroke-width="1" fill="none" fill-rule="evenodd"><g id="ICON切图" transform="translate(-283.000000, -259.000000)"><g id="导航栏icon" transform="translate(282.000000, 228.000000)"><g id="导航栏icon选中"><g id="nav_icon_bed_active备份" transform="translate(0.000000, 29.000000)"><mask id="mask-2" fill="white"><use xlink:href="#path-1"></use></mask><g id="矩形备份-2"></g><g id="编组" mask="url(#mask-2)" fill-rule="nonzero"><g transform="translate(2.426176, 3.002860)"><path d="M8.35968103,1.71375676 C9.64638457,1.71375676 10.6379693,2.96988494 10.7123416,4.50451712 L10.7168239,4.68994724 L10.7168239,5.92804248 L9.71682389,5.92804248 L9.71682389,4.68994724 C9.71682389,3.63120407 9.1388553,2.80485595 8.47162822,2.72080474 L8.35968103,2.71375676 L4.64539532,2.71375676 C3.96975899,2.71375676 3.35623059,3.48438155 3.29352023,4.51572928 L3.28825246,4.68994724 L3.28825246,5.92804248 L2.28825246,5.92804248 L2.28825246,4.68994724 C2.28825246,3.13459893 3.2303486,1.81864966 4.49244728,1.71972361 L4.64539532,1.71375676 L8.35968103,1.71375676 Z" id="路径" fill="#ADB9FF"></path><path d="M11.6071429,11.1071429 C11.8526027,11.1071429 12.0567512,11.284018 12.0990872,11.5172672 L12.1071429,11.6071429 L12.1071429,12.5357143 C12.1071429,12.8118567 11.8832852,13.0357143 11.6071429,13.0357143 C11.361683,13.0357143 11.1575345,12.8588391 11.1151985,12.6255899 L11.1071429,12.5357143 L11.1071429,11.6071429 C11.1071429,11.3310005 11.3310005,11.1071429 11.6071429,11.1071429 Z M1.39285714,11.1071429 C1.63831703,11.1071429 1.84246551,11.284018 1.88480147,11.5172672 L1.89285714,11.6071429 L1.89285714,12.5357143 C1.89285714,12.8118567 1.66899952,13.0357143 1.39285714,13.0357143 C1.14739725,13.0357143 0.943248773,12.8588391 0.900912812,12.6255899 L0.892857143,12.5357143 L0.892857143,11.6071429 C0.892857143,11.3310005 1.11671477,11.1071429 1.39285714,11.1071429 Z" id="形状结合" fill="#ADB9FF"></path><path d="M11.1428571,-0.5 L1.85714286,-0.5 C1.04594594,-0.5 0.428571429,0.240849417 0.428571429,1.11428571 L0.428571429,6.07142857 L12.5714286,6.07142857 L12.5714286,1.11428571 C12.5714286,0.240849417 11.9540541,-0.5 11.1428571,-0.5 Z M11.1428571,0.5 L11.2140416,0.509300781 C11.4022658,0.558332613 11.5714286,0.796623744 11.5714286,1.11428571 L11.571,5.071 L1.428,5.071 L1.42857143,1.11428571 C1.42857143,0.756915997 1.64266809,0.5 1.85714286,0.5 L11.1428571,0.5 Z" id="路径" fill="url(#linearGradient-3)"></path><path d="M12,5.07142857 L1,5.07142857 C0.171572875,5.07142857 -0.5,5.74300145 -0.5,6.57142857 L-0.5,11.0428571 C-0.5,11.374228 -0.23137085,11.6428571 0.1,11.6428571 L12.9,11.6428571 C13.2313708,11.6428571 13.5,11.374228 13.5,11.0428571 L13.5,6.57142857 C13.5,5.74300145 12.8284271,5.07142857 12,5.07142857 Z M12,6.07142857 L12.0898756,6.07948424 C12.3231248,6.1218202 12.5,6.32596868 12.5,6.57142857 L12.5,10.642 L0.5,10.642 L0.5,6.57142857 C0.5,6.2952862 0.723857625,6.07142857 1,6.07142857 L12,6.07142857 Z" id="矩形" fill="#FFFFFF"></path></g></g></g></g></g></g></g></svg>