<?xml version="1.0" encoding="UTF-8"?>
<svg width="15px" height="17px" viewBox="0 0 15 17" version="1.1" xmlns="http://www.w3.org/2000/svg" xmlns:xlink="http://www.w3.org/1999/xlink">
    <!-- Generator: Sketch 61.2 (89653) - https://sketch.com -->
    <title>nav_icon_limit_normal</title>
    <desc>Created with Sketch.</desc>
    <defs>
        <rect id="path-1" x="0" y="0" width="18" height="18"></rect>
        <linearGradient x1="100%" y1="37.5%" x2="68.8057961%" y2="51.5222911%" id="linearGradient-3">
            <stop stop-color="#FFFFFF" stop-opacity="0.400267701" offset="0%"></stop>
            <stop stop-color="#FFFFFF" offset="100%"></stop>
        </linearGradient>
    </defs>
    <g id="图标" stroke="none" stroke-width="1" fill="none" fill-rule="evenodd" opacity="0.652478">
        <g id="ICON切图" transform="translate(-339.000000, -343.000000)">
            <g id="导航栏icon" transform="translate(282.000000, 228.000000)">
                <g id="导航栏icon未选中" transform="translate(55.000000, 0.000000)">
                    <g id="nav_icon_limit_normal" transform="translate(0.000000, 115.000000)">
                        <mask id="mask-2" fill="white">
                            <use xlink:href="#path-1"></use>
                        </mask>
                        <g id="矩形备份-5"></g>
                        <g id="编组-4" mask="url(#mask-2)">
                            <g transform="translate(3.056969, 1.287741)">
                                <path d="M11.7608238,10.9534334 C11.850512,11.163757 11.9168686,11.3864151 11.9566425,11.6181564 C11.9851485,11.7842458 12,11.9550008 12,12.1292247 L12,14.1292247 C12,14.6815094 11.5522847,15.1292247 11,15.1292247 L1,15.1292247 C0.44771525,15.1292247 0,14.6815094 0,14.1292247 L0,12.1292247 C0,10.4723704 1.34314575,9.12922465 3,9.12922465 L3,9.12922465 L9,9.12922465 C9.23245764,9.12922465 9.45874016,9.15566348 9.67600455,9.20569812" id="路径" stroke="url(#linearGradient-3)" stroke-width="1" stroke-linejoin="round"></path>
                                <circle id="椭圆形" stroke="#FFFFFF" stroke-width="1" cx="5.97436386" cy="3.5" r="3.5"></circle>
                                <line x1="9.01533191" y1="13.0508491" x2="10.0153319" y2="11.3187983" id="直线-2" stroke="#ADB9FF" stroke-width="1.5" stroke-linecap="round"></line>
                                <circle id="椭圆形" stroke="#ADB9FF" stroke-width="1" transform="translate(11.026555, 9.627916) rotate(-150.000000) translate(-11.026555, -9.627916) " cx="11.0265554" cy="9.62791595" r="1.5"></circle>
                            </g>
                        </g>
                    </g>
                </g>
            </g>
        </g>
    </g>
</svg>